<svg width="64" height="64" viewBox="0 0 64 64" fill="none" xmlns="http://www.w3.org/2000/svg">
<path d="M32 0C49.6731 0 64 14.3269 64 32C64 49.6731 49.6731 64 32 64C14.3269 64 0 49.6731 0 32C0 14.3269 14.3269 0 32 0Z" fill="url(#paint0_linear_11_475)"/>
<g filter="url(#filter0_d_11_475)">
<path fill-rule="evenodd" clip-rule="evenodd" d="M12 34C12 42.4731 17.269 49.7155 24.7092 52.6295C22.1987 50.7929 19.6732 48.3063 19.6732 46.0383C22.4202 43.5732 22.5567 41.6676 22.6467 40.4119C22.7284 39.271 22.7717 38.6667 24.6998 38.6667C26.3456 41.1296 27.5787 42.47 28.6894 43.6773C29.8282 44.9152 30.8384 46.0133 32.0331 48.0383C29.2855 49.475 29.955 51.5207 30.4655 53.0804C30.569 53.3966 30.6659 53.6929 30.7266 53.9601C31.1476 53.9866 31.5722 54 32 54C38.0702 54 43.5088 51.2957 47.1767 47.0262C46.0042 45.5576 44.712 43.953 42.9776 43.953C39.7158 43.953 38.9333 41.8214 37.8526 38.8776C37.5915 38.1662 37.3129 37.4073 36.9777 36.6196C41.0568 31.4583 44.7646 31.2739 47.2036 31.1525C48.23 31.1015 49.0317 31.0616 49.5418 30.6667C50.4451 30.6667 51.213 31.2345 51.8841 32.1688C51.8096 31.3486 51.7189 30.5427 51.5484 29.7542C50.3094 24.0229 46.614 19.206 41.6191 16.4608C38.765 14.8922 35.4867 14 32 14C29.0502 14 26.2495 14.6386 23.7287 15.7851C27.1758 17.9143 30.6998 20.735 30.6998 25.3334C30.6998 26.8893 29.2305 31.301 27.3665 32.1688C24.3786 33.5599 14.0332 32.6666 22.0332 37.3333C17.9831 37.3333 14.6467 32.0501 14.6467 28C14.6467 27.013 14.3312 26.1535 14.0184 25.3014L14.0042 25.263C12.7203 27.9027 12 30.8673 12 34Z" fill="url(#paint1_linear_11_475)"/>
<path fill-rule="evenodd" clip-rule="evenodd" d="M41.6191 16.4608C46.614 19.206 50.3094 24.0229 51.5484 29.7542C51.0825 29.7432 50.4711 30.019 50 30C49.284 29.9711 49.5418 30 49.5418 29.5155C51.2457 27.9701 47.7831 27.2787 45.4655 26.3021C43.249 25.3682 40.6999 24.294 40.6999 22.3141C40.6999 19.9148 40.7715 17.6307 41.6191 16.4608Z" fill="url(#paint2_linear_11_475)"/>
<path d="M14.0042 25.263C16.0384 21.081 19.4874 17.7142 23.7287 15.7851C27.1758 17.9143 30.6998 20.735 30.6998 25.3334C30.6998 26.8893 29.2305 31.301 27.3665 32.1688C24.3786 33.5599 14.0332 32.6666 22.0332 37.3333C17.9831 37.3333 14.6467 32.0501 14.6467 28C14.6467 27.013 14.3312 26.1535 14.0184 25.3014L14.0042 25.263Z" fill="url(#paint3_linear_11_475)"/>
<path d="M30.7266 53.9601C28.6151 53.8274 26.5926 53.3672 24.7092 52.6295C22.1987 50.7929 19.6732 48.3063 19.6732 46.0383C22.4202 43.5732 22.5567 41.6676 22.6467 40.4119C22.7284 39.271 22.7717 38.6667 24.6998 38.6667C26.3456 41.1296 27.5787 42.47 28.6894 43.6773C29.8282 44.9152 30.8384 46.0133 32.0331 48.0383C29.2855 49.475 29.955 51.5207 30.4655 53.0804C30.569 53.3966 30.6659 53.6929 30.7266 53.9601Z" fill="url(#paint4_linear_11_475)"/>
<path d="M51.8841 32.1688C51.9388 32.7719 52 33.3827 52 34C52 38.9755 50.1831 43.5267 47.1767 47.0262C46.0042 45.5576 44.712 43.953 42.9776 43.953C39.7158 43.953 38.9333 41.8214 37.8526 38.8776C37.5915 38.1662 37.3129 37.4073 36.9777 36.6196C41.0568 31.4583 44.7646 31.2739 47.2036 31.1525C48.23 31.1015 49.0317 31.0616 49.5418 30.6667C50.4451 30.6667 51.213 31.2345 51.8841 32.1688Z" fill="url(#paint5_linear_11_475)"/>
</g>
<path d="M45 39.7097C45 44.5199 39.1797 46 32 46C24.8203 46 19 44.5199 19 39.7097C19 34.8995 24.8203 31 32 31C39.1797 31 45 34.8995 45 39.7097Z" fill="white"/>
<ellipse cx="22" cy="40" rx="2" ry="1" fill="#FDDCB8"/>
<ellipse cx="42" cy="40" rx="2" ry="1" fill="#FDDCB8"/>
<path d="M42 37C42 38.1046 41.1046 39 40 39C38.8954 39 38 38.1046 38 37C38 35.8954 38.8954 35 40 35C41.1046 35 42 35.8954 42 37Z" fill="#5D5D5D"/>
<circle cx="24" cy="37" r="2" fill="#5D5D5D"/>
<circle cx="24" cy="37" r="1" fill="white"/>
<circle cx="40" cy="37" r="1" fill="#F7F7F7"/>
<path d="M36 43.7084C36 42.7649 34.2091 42 32 42C29.7909 42 28 42.7649 28 43.7084C28 44.6519 29.7909 43.0039 32 43.0039C34.2091 43.0039 36 44.6519 36 43.7084Z" fill="#5D5D5D"/>
<rect x="31" y="9" width="2" height="2" rx="1" fill="#1A1A1A"/>
<g filter="url(#filter1_d_11_475)">
<path d="M32 20C27.1695 20 20 18 20 18H44C44 18 36.8305 20 32 20Z" fill="#1A1A1A"/>
<path d="M20 12H32H44V18H20V12Z" fill="#1A1A1A"/>
<path d="M32 7L54 11H32H9L32 7Z" fill="#262626"/>
<path d="M32 15L9 11H54L32 15Z" fill="#262626"/>
</g>
<path d="M32 10C51 12 50 15 50 17.5" stroke="#FFCC00"/>
<rect x="49" y="15" width="2" height="6" rx="1" fill="#FFCC00"/>
<path d="M33.0607 48.2401C33.3845 47.7115 34.9101 48.0847 36.4679 49.0741C37.5383 49.754 38.3455 50.5477 38.6407 51.1493C38.6987 50.736 38.861 50.2627 39.1251 49.7987C39.7389 48.7207 40.6661 48.1005 41.1954 48.413C41.7245 48.7257 41.6558 49.8527 41.0421 50.9306C40.9224 51.1408 40.7898 51.3329 40.6515 51.5048C42.0324 52.0227 43 53.2202 43.0001 54.6151C43.0001 56.4843 41.2637 57.9998 39.1222 57.9999C38.1468 57.9999 37.2558 57.6849 36.5743 57.1659C36.2573 57.151 35.9071 57.0488 35.5743 56.8525C34.7803 56.3837 34.3856 55.5663 34.6925 55.0273C34.7695 54.8921 34.8827 54.7866 35.0226 54.7128C34.6183 54.2672 34.4689 53.7275 34.6925 53.3349C34.7694 53.1999 34.8829 53.0952 35.0226 53.0214C34.6181 52.5758 34.469 52.0362 34.6925 51.6435C34.8651 51.3404 35.2224 51.1896 35.6437 51.1991C35.5281 51.1322 35.4114 51.0621 35.295 50.9882C33.7377 49.999 32.7375 48.769 33.0607 48.2401Z" fill="white"/>
<path d="M35 37H32H29" stroke="black"/>
<rect x="18.5" y="33.5" width="11" height="7" rx="0.5" fill="#D9D9D9" fill-opacity="0.3" stroke="black"/>
<rect x="34.5" y="33.5" width="11" height="7" rx="0.5" fill="#D9D9D9" fill-opacity="0.5" stroke="black"/>
<path d="M49.0312 25.0996C49.2122 25.7945 49.447 26.489 49.7451 27.1445C50.3998 28.5841 51.3916 29.8855 52.8359 30.5449C52.1713 30.8733 51.4916 31.3663 50.874 32.0703C50.0758 32.9803 49.3938 34.2282 48.9678 35.8994C48.7868 35.2049 48.5528 34.5106 48.2549 33.8555C47.6001 32.4155 46.6081 31.1134 45.1631 30.4541C45.8278 30.1257 46.5083 29.6339 47.126 28.9297C47.9243 28.0196 48.6052 26.7712 49.0312 25.0996Z" fill="#FFF9F9" stroke="#FFCC00"/>
<path d="M15.0312 38.0996C15.2122 38.7945 15.447 39.489 15.7451 40.1445C16.3998 41.5841 17.3916 42.8855 18.8359 43.5449C18.1713 43.8733 17.4916 44.3663 16.874 45.0703C16.0758 45.9803 15.3938 47.2282 14.9678 48.8994C14.7868 48.2049 14.5528 47.5106 14.2549 46.8555C13.6001 45.4155 12.6081 44.1134 11.1631 43.4541C11.8278 43.1257 12.5083 42.6339 13.126 41.9297C13.9243 41.0196 14.6052 39.7712 15.0312 38.0996Z" fill="#FFF9F9" stroke="#FFCC00"/>
<defs>
<filter id="filter0_d_11_475" x="8" y="14" width="48" height="48" filterUnits="userSpaceOnUse" color-interpolation-filters="sRGB">
<feFlood flood-opacity="0" result="BackgroundImageFix"/>
<feColorMatrix in="SourceAlpha" type="matrix" values="0 0 0 0 0 0 0 0 0 0 0 0 0 0 0 0 0 0 127 0" result="hardAlpha"/>
<feOffset dy="4"/>
<feGaussianBlur stdDeviation="2"/>
<feComposite in2="hardAlpha" operator="out"/>
<feColorMatrix type="matrix" values="0 0 0 0 0 0 0 0 0 0 0 0 0 0 0 0 0 0 0.25 0"/>
<feBlend mode="normal" in2="BackgroundImageFix" result="effect1_dropShadow_11_475"/>
<feBlend mode="normal" in="SourceGraphic" in2="effect1_dropShadow_11_475" result="shape"/>
</filter>
<filter id="filter1_d_11_475" x="5" y="5" width="53" height="21" filterUnits="userSpaceOnUse" color-interpolation-filters="sRGB">
<feFlood flood-opacity="0" result="BackgroundImageFix"/>
<feColorMatrix in="SourceAlpha" type="matrix" values="0 0 0 0 0 0 0 0 0 0 0 0 0 0 0 0 0 0 127 0" result="hardAlpha"/>
<feOffset dy="2"/>
<feGaussianBlur stdDeviation="2"/>
<feComposite in2="hardAlpha" operator="out"/>
<feColorMatrix type="matrix" values="0 0 0 0 0 0 0 0 0 0 0 0 0 0 0 0 0 0 0.25 0"/>
<feBlend mode="normal" in2="BackgroundImageFix" result="effect1_dropShadow_11_475"/>
<feBlend mode="normal" in="SourceGraphic" in2="effect1_dropShadow_11_475" result="shape"/>
</filter>
<linearGradient id="paint0_linear_11_475" x1="11.5" y1="8" x2="69.5" y2="68" gradientUnits="userSpaceOnUse">
<stop stop-color="#561FFB"/>
<stop offset="1" stop-color="#AE00FF"/>
</linearGradient>
<linearGradient id="paint1_linear_11_475" x1="32" y1="14" x2="32" y2="54" gradientUnits="userSpaceOnUse">
<stop stop-color="#72D4FF"/>
<stop offset="1" stop-color="#06B3FF"/>
</linearGradient>
<linearGradient id="paint2_linear_11_475" x1="34.6833" y1="14" x2="34.6833" y2="55.3333" gradientUnits="userSpaceOnUse">
<stop stop-color="#C7FF79"/>
<stop offset="1" stop-color="#94FF00"/>
</linearGradient>
<linearGradient id="paint3_linear_11_475" x1="34.6833" y1="14" x2="34.6833" y2="55.3333" gradientUnits="userSpaceOnUse">
<stop stop-color="#C7FF79"/>
<stop offset="1" stop-color="#94FF00"/>
</linearGradient>
<linearGradient id="paint4_linear_11_475" x1="34.6833" y1="14" x2="34.6833" y2="55.3333" gradientUnits="userSpaceOnUse">
<stop stop-color="#C7FF79"/>
<stop offset="1" stop-color="#94FF00"/>
</linearGradient>
<linearGradient id="paint5_linear_11_475" x1="34.6833" y1="14" x2="34.6833" y2="55.3333" gradientUnits="userSpaceOnUse">
<stop stop-color="#C7FF79"/>
<stop offset="1" stop-color="#94FF00"/>
</linearGradient>
</defs>
</svg>
