<svg width="53" height="57" viewBox="0 0 53 57" fill="none" xmlns="http://www.w3.org/2000/svg">
<g filter="url(#filter0_d_11_66)">
<path fill-rule="evenodd" clip-rule="evenodd" d="M7 29C7 37.4731 12.269 44.7155 19.7092 47.6295C17.1987 45.7929 14.6732 43.3063 14.6732 41.0383C17.4202 38.5732 17.5567 36.6676 17.6467 35.4119C17.7284 34.271 17.7717 33.6667 19.6998 33.6667C21.3456 36.1296 22.5787 37.47 23.6894 38.6773C24.8282 39.9152 25.8384 41.0133 27.0331 43.0383C24.2855 44.475 24.955 46.5207 25.4655 48.0804C25.569 48.3966 25.6659 48.6929 25.7266 48.9601C26.1476 48.9866 26.5722 49 27 49C33.0702 49 38.5088 46.2957 42.1767 42.0262C41.0042 40.5576 39.712 38.953 37.9776 38.953C34.7158 38.953 33.9333 36.8214 32.8526 33.8776C32.5915 33.1662 32.3129 32.4073 31.9777 31.6196C36.0568 26.4583 39.7646 26.2739 42.2036 26.1525C43.23 26.1015 44.0317 26.0616 44.5418 25.6667C45.4451 25.6667 46.213 26.2345 46.8841 27.1688C46.8096 26.3486 46.7189 25.5427 46.5484 24.7542C45.3094 19.0229 41.614 14.206 36.6191 11.4608C33.765 9.89223 30.4867 9 27 9C24.0502 9 21.2495 9.63862 18.7287 10.7851C22.1758 12.9143 25.6998 15.735 25.6998 20.3334C25.6998 21.8893 24.2305 26.301 22.3665 27.1688C19.3786 28.5599 9.03324 27.6666 17.0332 32.3333C12.9831 32.3333 9.6467 27.0501 9.6467 23C9.6467 22.013 9.33115 21.1535 9.01836 20.3014L9.00425 20.263C7.72027 22.9027 7 25.8673 7 29Z" fill="url(#paint0_linear_11_66)"/>
<path fill-rule="evenodd" clip-rule="evenodd" d="M36.6191 11.4608C41.614 14.206 45.3094 19.0229 46.5484 24.7542C46.0825 24.7432 45.4711 25.019 45 25C44.284 24.9711 44.5418 25 44.5418 24.5155C46.2457 22.9701 42.7831 22.2787 40.4655 21.3021C38.249 20.3682 35.6999 19.294 35.6999 17.3141C35.6999 14.9148 35.7715 12.6307 36.6191 11.4608Z" fill="url(#paint1_linear_11_66)"/>
<path d="M9.00425 20.263C11.0384 16.081 14.4874 12.7142 18.7287 10.7851C22.1758 12.9143 25.6998 15.735 25.6998 20.3334C25.6998 21.8893 24.2305 26.301 22.3665 27.1688C19.3786 28.5599 9.03324 27.6666 17.0332 32.3333C12.9831 32.3333 9.6467 27.0501 9.6467 23C9.6467 22.013 9.33115 21.1535 9.01836 20.3014L9.00425 20.263Z" fill="url(#paint2_linear_11_66)"/>
<path d="M25.7266 48.9601C23.6151 48.8274 21.5926 48.3672 19.7092 47.6295C17.1987 45.7929 14.6732 43.3063 14.6732 41.0383C17.4202 38.5732 17.5567 36.6676 17.6467 35.4119C17.7284 34.271 17.7717 33.6667 19.6998 33.6667C21.3456 36.1296 22.5787 37.47 23.6894 38.6773C24.8282 39.9152 25.8384 41.0133 27.0331 43.0383C24.2855 44.475 24.955 46.5207 25.4655 48.0804C25.569 48.3966 25.6659 48.6929 25.7266 48.9601Z" fill="url(#paint3_linear_11_66)"/>
<path d="M46.8841 27.1688C46.9388 27.7719 47 28.3827 47 29C47 33.9755 45.1831 38.5267 42.1767 42.0262C41.0042 40.5576 39.712 38.953 37.9776 38.953C34.7158 38.953 33.9333 36.8214 32.8526 33.8776C32.5915 33.1662 32.3129 32.4073 31.9777 31.6196C36.0568 26.4583 39.7646 26.2739 42.2036 26.1525C43.23 26.1015 44.0317 26.0616 44.5418 25.6667C45.4451 25.6667 46.213 26.2345 46.8841 27.1688Z" fill="url(#paint4_linear_11_66)"/>
</g>
<path d="M40 34.7097C40 39.5199 34.1797 41 27 41C19.8203 41 14 39.5199 14 34.7097C14 29.8995 19.8203 26 27 26C34.1797 26 40 29.8995 40 34.7097Z" fill="white"/>
<ellipse cx="17" cy="35" rx="2" ry="1" fill="#FDDCB8"/>
<ellipse cx="37" cy="35" rx="2" ry="1" fill="#FDDCB8"/>
<path d="M21 31.7098C21 32.654 20.1046 30.9919 19 30.9919C17.8954 30.9919 17 32.654 17 31.7098C17 30.7655 17.8954 30 19 30C20.1046 30 21 30.7655 21 31.7098Z" fill="#5D5D5D"/>
<path d="M37 31.7098C37 32.654 36.1046 30.9919 35 30.9919C33.8954 30.9919 33 32.654 33 31.7098C33 30.7655 33.8954 30 35 30C36.1046 30 37 30.7655 37 31.7098Z" fill="#5D5D5D"/>
<path d="M31 37.2916C31 38.2351 29.2091 39 27 39C24.7909 39 23 38.2351 23 37.2916C23 36.3481 24.7909 37.9961 27 37.9961C29.2091 37.9961 31 36.3481 31 37.2916Z" fill="#5D5D5D"/>
<path d="M27 5C46 7 45 10 45 12.5" stroke="#FFCC00"/>
<rect x="26" y="4" width="2" height="2" rx="1" fill="#1A1A1A"/>
<g filter="url(#filter1_d_11_66)">
<path d="M27 15C22.1695 15 15 13 15 13H39C39 13 31.8305 15 27 15Z" fill="#1A1A1A"/>
<path d="M15 7H27H39V13H15V7Z" fill="#1A1A1A"/>
<path d="M27 2L49 6H27H4L27 2Z" fill="#262626"/>
<path d="M27 10L4 6L49 6L27 10Z" fill="#262626"/>
</g>
<rect x="44" y="10" width="2" height="6" rx="1" fill="#FFCC00"/>
<defs>
<filter id="filter0_d_11_66" x="3" y="9" width="48" height="48" filterUnits="userSpaceOnUse" color-interpolation-filters="sRGB">
<feFlood flood-opacity="0" result="BackgroundImageFix"/>
<feColorMatrix in="SourceAlpha" type="matrix" values="0 0 0 0 0 0 0 0 0 0 0 0 0 0 0 0 0 0 127 0" result="hardAlpha"/>
<feOffset dy="4"/>
<feGaussianBlur stdDeviation="2"/>
<feComposite in2="hardAlpha" operator="out"/>
<feColorMatrix type="matrix" values="0 0 0 0 0 0 0 0 0 0 0 0 0 0 0 0 0 0 0.25 0"/>
<feBlend mode="normal" in2="BackgroundImageFix" result="effect1_dropShadow_11_66"/>
<feBlend mode="normal" in="SourceGraphic" in2="effect1_dropShadow_11_66" result="shape"/>
</filter>
<filter id="filter1_d_11_66" x="0" y="0" width="53" height="21" filterUnits="userSpaceOnUse" color-interpolation-filters="sRGB">
<feFlood flood-opacity="0" result="BackgroundImageFix"/>
<feColorMatrix in="SourceAlpha" type="matrix" values="0 0 0 0 0 0 0 0 0 0 0 0 0 0 0 0 0 0 127 0" result="hardAlpha"/>
<feOffset dy="2"/>
<feGaussianBlur stdDeviation="2"/>
<feComposite in2="hardAlpha" operator="out"/>
<feColorMatrix type="matrix" values="0 0 0 0 0 0 0 0 0 0 0 0 0 0 0 0 0 0 0.25 0"/>
<feBlend mode="normal" in2="BackgroundImageFix" result="effect1_dropShadow_11_66"/>
<feBlend mode="normal" in="SourceGraphic" in2="effect1_dropShadow_11_66" result="shape"/>
</filter>
<linearGradient id="paint0_linear_11_66" x1="27" y1="9" x2="27" y2="49" gradientUnits="userSpaceOnUse">
<stop stop-color="#72D4FF"/>
<stop offset="1" stop-color="#06B3FF"/>
</linearGradient>
<linearGradient id="paint1_linear_11_66" x1="29.6833" y1="9" x2="29.6833" y2="50.3333" gradientUnits="userSpaceOnUse">
<stop stop-color="#C7FF79"/>
<stop offset="1" stop-color="#94FF00"/>
</linearGradient>
<linearGradient id="paint2_linear_11_66" x1="29.6833" y1="9" x2="29.6833" y2="50.3333" gradientUnits="userSpaceOnUse">
<stop stop-color="#C7FF79"/>
<stop offset="1" stop-color="#94FF00"/>
</linearGradient>
<linearGradient id="paint3_linear_11_66" x1="29.6833" y1="9" x2="29.6833" y2="50.3333" gradientUnits="userSpaceOnUse">
<stop stop-color="#C7FF79"/>
<stop offset="1" stop-color="#94FF00"/>
</linearGradient>
<linearGradient id="paint4_linear_11_66" x1="29.6833" y1="9" x2="29.6833" y2="50.3333" gradientUnits="userSpaceOnUse">
<stop stop-color="#C7FF79"/>
<stop offset="1" stop-color="#94FF00"/>
</linearGradient>
</defs>
</svg>
