<svg width="64" height="64" viewBox="0 0 64 64" fill="none" xmlns="http://www.w3.org/2000/svg">
<path d="M32 0C49.6731 0 64 14.3269 64 32C64 49.6731 49.6731 64 32 64C14.3269 64 0 49.6731 0 32C0 14.3269 14.3269 0 32 0Z" fill="url(#paint0_linear_11_485)"/>
<g filter="url(#filter0_d_11_485)">
<path fill-rule="evenodd" clip-rule="evenodd" d="M12 36C12 44.4731 17.269 51.7155 24.7092 54.6295C22.1987 52.7929 19.6732 50.3063 19.6732 48.0383C22.4202 45.5732 22.5567 43.6676 22.6467 42.4119C22.7284 41.271 22.7717 40.6667 24.6998 40.6667C26.3456 43.1296 27.5787 44.47 28.6894 45.6773C29.8282 46.9152 30.8384 48.0133 32.0331 50.0383C29.2855 51.475 29.955 53.5207 30.4655 55.0804C30.569 55.3966 30.6659 55.6929 30.7266 55.9601C31.1476 55.9866 31.5722 56 32 56C38.0702 56 43.5088 53.2957 47.1767 49.0262C46.0042 47.5576 44.712 45.953 42.9776 45.953C39.7158 45.953 38.9333 43.8214 37.8526 40.8776C37.5915 40.1662 37.3129 39.4073 36.9777 38.6196C41.0568 33.4583 44.7646 33.2739 47.2036 33.1525C48.23 33.1015 49.0317 33.0616 49.5418 32.6667C50.4451 32.6667 51.213 33.2345 51.8841 34.1688C51.8096 33.3486 51.7189 32.5427 51.5484 31.7542C50.3094 26.0229 46.614 21.206 41.6191 18.4608C38.765 16.8922 35.4867 16 32 16C29.0502 16 26.2495 16.6386 23.7287 17.7851C27.1758 19.9143 30.6998 22.735 30.6998 27.3334C30.6998 28.8893 29.2305 33.301 27.3665 34.1688C24.3786 35.5599 14.0332 34.6666 22.0332 39.3333C17.9831 39.3333 14.6467 34.0501 14.6467 30C14.6467 29.013 14.3312 28.1535 14.0184 27.3014L14.0042 27.263C12.7203 29.9027 12 32.8673 12 36Z" fill="url(#paint1_linear_11_485)"/>
<path fill-rule="evenodd" clip-rule="evenodd" d="M41.6191 18.4608C46.614 21.206 50.3094 26.0229 51.5484 31.7542C51.0825 31.7432 50.4711 32.019 50 32C49.284 31.9711 49.5418 32 49.5418 31.5155C51.2457 29.9701 47.7831 29.2787 45.4655 28.3021C43.249 27.3682 40.6999 26.294 40.6999 24.3141C40.6999 21.9148 40.7715 19.6307 41.6191 18.4608Z" fill="url(#paint2_linear_11_485)"/>
<path d="M14.0042 27.263C16.0384 23.081 19.4874 19.7142 23.7287 17.7851C27.1758 19.9143 30.6998 22.735 30.6998 27.3334C30.6998 28.8893 29.2305 33.301 27.3665 34.1688C24.3786 35.5599 14.0332 34.6666 22.0332 39.3333C17.9831 39.3333 14.6467 34.0501 14.6467 30C14.6467 29.013 14.3312 28.1535 14.0184 27.3014L14.0042 27.263Z" fill="url(#paint3_linear_11_485)"/>
<path d="M30.7266 55.9601C28.6151 55.8274 26.5926 55.3672 24.7092 54.6295C22.1987 52.7929 19.6732 50.3063 19.6732 48.0383C22.4202 45.5732 22.5567 43.6676 22.6467 42.4119C22.7284 41.271 22.7717 40.6667 24.6998 40.6667C26.3456 43.1296 27.5787 44.47 28.6894 45.6773C29.8282 46.9152 30.8384 48.0133 32.0331 50.0383C29.2855 51.475 29.955 53.5207 30.4655 55.0804C30.569 55.3966 30.6659 55.6929 30.7266 55.9601Z" fill="url(#paint4_linear_11_485)"/>
<path d="M51.8841 34.1688C51.9388 34.7719 52 35.3827 52 36C52 40.9755 50.1831 45.5267 47.1767 49.0262C46.0042 47.5576 44.712 45.953 42.9776 45.953C39.7158 45.953 38.9333 43.8214 37.8526 40.8776C37.5915 40.1662 37.3129 39.4073 36.9777 38.6196C41.0568 33.4583 44.7646 33.2739 47.2036 33.1525C48.23 33.1015 49.0317 33.0616 49.5418 32.6667C50.4451 32.6667 51.213 33.2345 51.8841 34.1688Z" fill="url(#paint5_linear_11_485)"/>
</g>
<path d="M45 41.7097C45 46.5199 39.1797 48 32 48C24.8203 48 19 46.5199 19 41.7097C19 36.8995 24.8203 33 32 33C39.1797 33 45 36.8995 45 41.7097Z" fill="white"/>
<ellipse cx="22" cy="42" rx="2" ry="1" fill="#FDDCB8"/>
<ellipse cx="42" cy="42" rx="2" ry="1" fill="#FDDCB8"/>
<path d="M42 39C42 40.1046 41.1046 41 40 41C38.8954 41 38 40.1046 38 39C38 37.8954 38.8954 37 40 37C41.1046 37 42 37.8954 42 39Z" fill="#5D5D5D"/>
<circle cx="24" cy="39" r="2" fill="#5D5D5D"/>
<circle cx="24" cy="39" r="1" fill="white"/>
<circle cx="40" cy="39" r="1" fill="#F7F7F7"/>
<path d="M36 44.2916C36 45.2351 34.2091 46 32 46C29.7909 46 28 45.2351 28 44.2916C28 43.3481 29.7909 44.9961 32 44.9961C34.2091 44.9961 36 43.3481 36 44.2916Z" fill="#5D5D5D"/>
<rect x="31" y="11" width="2" height="2" rx="1" fill="#1A1A1A"/>
<g filter="url(#filter1_d_11_485)">
<path d="M32 22C27.1695 22 20 20 20 20H44C44 20 36.8305 22 32 22Z" fill="#1A1A1A"/>
<path d="M20 14H32H44V20H20V14Z" fill="#1A1A1A"/>
<path d="M32 9L54 13H32H9L32 9Z" fill="#262626"/>
<path d="M32 17L9 13H54L32 17Z" fill="#262626"/>
</g>
<path d="M32 12C51 14 50 17 50 19.5" stroke="#FFCC00"/>
<rect x="49" y="17" width="2" height="6" rx="1" fill="#FFCC00"/>
<ellipse cx="39.1219" cy="56.6156" rx="3.8777" ry="3.38439" fill="#FFFEFE"/>
<ellipse cx="1.11303" cy="2.24616" rx="1.11303" ry="2.24616" transform="matrix(0.861139 0.50837 -0.494795 0.86901 40.2368 49.8468)" fill="#FFFEFE"/>
<ellipse cx="1.12308" cy="1.66955" rx="1.12308" ry="1.66955" transform="matrix(-0.494795 0.86901 -0.861139 -0.50837 38.1232 54.3646)" fill="#FFFEFE"/>
<ellipse cx="1.12308" cy="1.66955" rx="1.12308" ry="1.66955" transform="matrix(-0.494795 0.86901 -0.861139 -0.50837 38.1232 56.0568)" fill="#FFFEFE"/>
<ellipse cx="1.12308" cy="1.66955" rx="1.12308" ry="1.66955" transform="matrix(-0.494795 0.86901 -0.861139 -0.50837 38.1232 57.749)" fill="#FFFEFE"/>
<ellipse cx="1.1225" cy="3.34149" rx="1.1225" ry="3.34149" transform="matrix(0.522358 -0.852726 0.844131 0.536136 32.4744 51.1971)" fill="#FFFEFE"/>
<path d="M35 39H32H29" stroke="black"/>
<rect x="18.5" y="35.5" width="11" height="7" rx="0.5" fill="#D9D9D9" fill-opacity="0.3" stroke="black"/>
<rect x="34.5" y="35.5" width="11" height="7" rx="0.5" fill="#D9D9D9" fill-opacity="0.5" stroke="black"/>
<path d="M15.0312 40.0996C15.2122 40.7945 15.447 41.489 15.7451 42.1445C16.3998 43.5841 17.3916 44.8855 18.8359 45.5449C18.1713 45.8733 17.4916 46.3663 16.874 47.0703C16.0758 47.9803 15.3938 49.2282 14.9678 50.8994C14.7868 50.2049 14.5528 49.5106 14.2549 48.8555C13.6001 47.4155 12.6081 46.1134 11.1631 45.4541C11.8278 45.1257 12.5083 44.6339 13.126 43.9297C13.9243 43.0196 14.6052 41.7712 15.0312 40.0996Z" fill="#FFF9F9" stroke="#FFCC00"/>
<path d="M49.0312 27.0996C49.2122 27.7945 49.447 28.489 49.7451 29.1445C50.3998 30.5841 51.3916 31.8855 52.8359 32.5449C52.1713 32.8733 51.4916 33.3663 50.874 34.0703C50.0758 34.9803 49.3938 36.2282 48.9678 37.8994C48.7868 37.2049 48.5528 36.5106 48.2549 35.8555C47.6001 34.4155 46.6081 33.1134 45.1631 32.4541C45.8278 32.1257 46.5083 31.6339 47.126 30.9297C47.9243 30.0196 48.6052 28.7712 49.0312 27.0996Z" fill="#FFF9F9" stroke="#FFCC00"/>
<defs>
<filter id="filter0_d_11_485" x="8" y="16" width="48" height="48" filterUnits="userSpaceOnUse" color-interpolation-filters="sRGB">
<feFlood flood-opacity="0" result="BackgroundImageFix"/>
<feColorMatrix in="SourceAlpha" type="matrix" values="0 0 0 0 0 0 0 0 0 0 0 0 0 0 0 0 0 0 127 0" result="hardAlpha"/>
<feOffset dy="4"/>
<feGaussianBlur stdDeviation="2"/>
<feComposite in2="hardAlpha" operator="out"/>
<feColorMatrix type="matrix" values="0 0 0 0 0 0 0 0 0 0 0 0 0 0 0 0 0 0 0.25 0"/>
<feBlend mode="normal" in2="BackgroundImageFix" result="effect1_dropShadow_11_485"/>
<feBlend mode="normal" in="SourceGraphic" in2="effect1_dropShadow_11_485" result="shape"/>
</filter>
<filter id="filter1_d_11_485" x="5" y="7" width="53" height="21" filterUnits="userSpaceOnUse" color-interpolation-filters="sRGB">
<feFlood flood-opacity="0" result="BackgroundImageFix"/>
<feColorMatrix in="SourceAlpha" type="matrix" values="0 0 0 0 0 0 0 0 0 0 0 0 0 0 0 0 0 0 127 0" result="hardAlpha"/>
<feOffset dy="2"/>
<feGaussianBlur stdDeviation="2"/>
<feComposite in2="hardAlpha" operator="out"/>
<feColorMatrix type="matrix" values="0 0 0 0 0 0 0 0 0 0 0 0 0 0 0 0 0 0 0.25 0"/>
<feBlend mode="normal" in2="BackgroundImageFix" result="effect1_dropShadow_11_485"/>
<feBlend mode="normal" in="SourceGraphic" in2="effect1_dropShadow_11_485" result="shape"/>
</filter>
<linearGradient id="paint0_linear_11_485" x1="11.5" y1="8" x2="69.5" y2="68" gradientUnits="userSpaceOnUse">
<stop stop-color="#561FFB"/>
<stop offset="1" stop-color="#AE00FF"/>
</linearGradient>
<linearGradient id="paint1_linear_11_485" x1="32" y1="16" x2="32" y2="56" gradientUnits="userSpaceOnUse">
<stop stop-color="#72D4FF"/>
<stop offset="1" stop-color="#06B3FF"/>
</linearGradient>
<linearGradient id="paint2_linear_11_485" x1="34.6833" y1="16" x2="34.6833" y2="57.3333" gradientUnits="userSpaceOnUse">
<stop stop-color="#C7FF79"/>
<stop offset="1" stop-color="#94FF00"/>
</linearGradient>
<linearGradient id="paint3_linear_11_485" x1="34.6833" y1="16" x2="34.6833" y2="57.3333" gradientUnits="userSpaceOnUse">
<stop stop-color="#C7FF79"/>
<stop offset="1" stop-color="#94FF00"/>
</linearGradient>
<linearGradient id="paint4_linear_11_485" x1="34.6833" y1="16" x2="34.6833" y2="57.3333" gradientUnits="userSpaceOnUse">
<stop stop-color="#C7FF79"/>
<stop offset="1" stop-color="#94FF00"/>
</linearGradient>
<linearGradient id="paint5_linear_11_485" x1="34.6833" y1="16" x2="34.6833" y2="57.3333" gradientUnits="userSpaceOnUse">
<stop stop-color="#C7FF79"/>
<stop offset="1" stop-color="#94FF00"/>
</linearGradient>
</defs>
</svg>
